<svg xmlns="http://www.w3.org/2000/svg" xmlns:xlink="http://www.w3.org/1999/xlink" width="50" zoomAndPan="magnify" viewBox="0 0 37.5 30.000001" height="40" preserveAspectRatio="xMidYMid meet" version="1.0"><path fill="#212121" d="M 23.621094 16.179688 C 24.992188 16.179688 26.105469 17.292969 26.105469 18.664062 L 26.105469 19.492188 C 26.105469 22.753906 23.027344 26.109375 17.832031 26.109375 C 12.632812 26.109375 9.554688 22.753906 9.554688 19.492188 L 9.554688 18.664062 C 9.554688 17.292969 10.667969 16.179688 12.039062 16.179688 Z M 17.832031 5.425781 C 20.34375 5.425781 22.382812 7.460938 22.382812 9.976562 C 22.382812 12.488281 20.34375 14.527344 17.832031 14.527344 C 15.316406 14.527344 13.28125 12.488281 13.28125 9.976562 C 13.28125 7.460938 15.316406 5.425781 17.832031 5.425781 Z M 17.832031 5.425781 " fill-opacity="1" fill-rule="nonzero"/></svg>